<?xml version="1.0" encoding="UTF-8"?><svg id="a" xmlns="http://www.w3.org/2000/svg" viewBox="0 0 84.4 84.4"><path d="M84.4,42.2c0-8.14-2.32-15.74-6.33-22.19l.02-.02-.38-.6h-.04c-4.48-6.95-10.94-12.5-18.58-15.85v-.03s-.46-.2-.46-.2c-2.53-1.07-5.16-1.88-7.84-2.44-.08-.02-.16-.03-.25-.05-.56-.11-1.13-.21-1.69-.3-.12-.02-.24-.04-.36-.06-.63-.09-1.27-.18-1.91-.25l-1.78-.14c-.86-.05-1.72-.09-2.59-.09s-1.72.03-2.57.08l-1.8.14c-.24.02-.47.06-.71.09-.2.02-.39.05-.59.07-.71.1-1.42.21-2.13.34-.25.05-.5.1-.74.15-.53.11-1.05.23-1.57.35-.42.1-.83.21-1.25.33-.41.11-.82.23-1.22.36-.39.12-.78.24-1.16.38-.18.06-.35.13-.53.19-.81.29-1.62.61-2.41.95-.04.02-.07.03-.11.04l-.1.04h0c-7.51,3.27-14,8.72-18.61,15.88h-.02s-.25.39-.25.39c0,.01-.02.03-.03.04,0,.01-.01.02-.02.03l-.09.14h0C2.19,26.65,0,34.32,0,42.2c0,6.96,1.73,13.85,5,19.94.41.76.86,1.52,1.31,2.26h0s.27.44.27.44c.01.02.03.04.04.07,0,0,.01.02.02.02l.05.08h0c4.61,7.16,11.11,12.6,18.62,15.87h0s.1.05.1.05c.13.05.26.1.38.16.52.22,1.04.43,1.56.62.42.16.85.31,1.27.46.32.11.64.21.97.31.56.18,1.13.34,1.7.49.27.07.54.14.81.2.55.13,1.1.26,1.65.37.23.05.46.09.68.14.7.13,1.39.24,2.1.33.22.03.44.06.67.08.21.02.41.05.61.08l1.81.15c.85.05,1.7.08,2.56.08s1.72-.03,2.58-.09l1.67-.13s.09,0,.13-.01h0s0,0,0,0c0,0,0,0,0,0,.62-.06,1.23-.14,1.84-.23.19-.03.37-.06.56-.09.48-.08.96-.16,1.43-.26.16-.03.32-.06.48-.1,2.77-.58,5.48-1.43,8.09-2.56l.1-.04v-.03c7.65-3.35,14.11-8.9,18.59-15.85h.04s.38-.6.38-.6l-.02-.02c4.01-6.45,6.33-14.05,6.33-22.19ZM59.75,4.39c6.92,3.23,12.82,8.29,17.05,14.57.09.13-.03.32-.18.29-7.52-1.04-14.07-6.64-17.12-14.63-.06-.15.11-.31.26-.24ZM29.98,11.36c.42-6.09,5.68-10.78,11.79-10.85.14,0,.29,0,.43,0,.13,0,.26,0,.39,0,6.12.06,11.4,4.75,11.83,10.85.02.28.03.56.03.85,0,.42-.02.84-.06,1.26-.04.38-.1.76-.17,1.12,0,.03,0,.06-.01.09-.07.36-.17.72-.28,1.07-.01.03-.02.07-.03.11-.09.3-.21.6-.33.89-.03.08-.06.17-.1.25-.1.23-.22.46-.33.69-.07.14-.14.29-.21.43-.09.17-.2.32-.29.48-.12.2-.24.4-.38.59-.07.1-.15.2-.23.3-.18.24-.37.49-.57.72-.05.06-.1.11-.15.17-.24.26-.48.52-.75.77-2.19,2.05-5.13,3.32-8.36,3.32s-6.17-1.27-8.36-3.32c-.26-.25-.51-.51-.75-.77-.05-.05-.1-.11-.15-.16-.2-.23-.39-.48-.57-.72-.07-.1-.15-.2-.22-.3-.13-.19-.26-.39-.38-.59-.1-.16-.2-.32-.29-.48-.08-.14-.14-.28-.21-.42-.11-.23-.23-.45-.33-.69-.03-.08-.06-.16-.09-.24-.12-.3-.23-.59-.33-.9,0-.03-.01-.06-.02-.09-.11-.36-.2-.72-.28-1.08,0-.03,0-.06-.01-.09-.07-.37-.13-.74-.17-1.12-.04-.41-.06-.83-.06-1.26,0-.28,0-.56.03-.84ZM43.96,25.04c8.07.81,14.59,7.33,15.4,15.4,1.09,10.9-8.03,20.02-18.93,18.93-8.07-.81-14.59-7.33-15.4-15.4-1.09-10.9,8.03-20.02,18.93-18.93ZM7.59,18.96c4.34-6.46,10.25-11.46,17.07-14.61.15-.07.31.09.26.24-3.04,8.01-9.62,13.63-17.15,14.67-.16.02-.27-.16-.18-.29ZM5.66,62.3s0-.01-.01-.02c-.12-.21-.18-.46-.18-.7V22.82c0-.24.06-.49.18-.7,0,0,.01-.02.02-.03.49-.88,1.72-1,2.35-.22,4.06,5.03,6.43,12.42,6.43,20.32,0,7.89-2.38,15.3-6.43,20.32-.63.78-1.87.66-2.35-.21ZM24.66,80.04c-6.82-3.16-12.74-8.15-17.08-14.61-.09-.13.03-.32.18-.29,7.53,1.03,14.11,6.65,17.15,14.66.06.15-.11.31-.26.24ZM29.37,60.39c-.12-.09-.24-.18-.36-.27-.32-.24-.64-.47-.95-.72-.11-.09-.21-.19-.31-.28-.31-.26-.62-.53-.91-.8-.1-.09-.19-.2-.29-.29-.29-.29-.58-.57-.85-.87-.08-.09-.16-.19-.24-.29-.27-.31-.55-.62-.8-.95-.07-.08-.12-.17-.19-.26-.26-.34-.52-.69-.76-1.05-.06-.09-.11-.18-.16-.26-.24-.37-.47-.73-.69-1.11-.05-.08-.09-.17-.13-.25-.21-.39-.43-.78-.62-1.18-.04-.08-.07-.17-.11-.26-.19-.41-.37-.82-.53-1.24-.03-.07-.05-.14-.07-.21-.17-.44-.32-.88-.46-1.33-.03-.09-.05-.18-.07-.27-.13-.44-.25-.88-.35-1.32-.02-.07-.02-.14-.04-.2-.1-.47-.2-.94-.27-1.42-.02-.12-.03-.25-.04-.37-.06-.43-.11-.85-.14-1.29,0-.13,0-.27-.01-.4-.02-.43-.05-.86-.05-1.29,0-3.41.76-6.67,2.16-9.61,0,0,0,0,0,0,.23-.49.48-.96.75-1.43,0,0,0,0,0,0,.27-.47.55-.92.85-1.37,0,0,.01-.01.02-.02.3-.44.61-.87.94-1.29,0,0,.01-.01.02-.02.33-.42.67-.83,1.03-1.22.02-.02.03-.03.05-.05.35-.38.71-.76,1.09-1.11.02-.02.05-.04.07-.06.37-.35.76-.69,1.16-1.02.03-.03.07-.05.1-.08.39-.32.79-.62,1.21-.91.04-.03.08-.05.11-.07.42-.29.84-.57,1.28-.83.05-.03.09-.05.14-.08.43-.25.87-.5,1.33-.73.04-.02.09-.04.13-.06.42-.21.85-.4,1.29-.58.82.74,1.73,1.38,2.72,1.89.83.43.8,1.63-.08,1.94-6.9,2.43-11.85,9-11.85,16.72s4.96,14.29,11.85,16.72c.88.31.91,1.51.08,1.94-.99.51-1.9,1.15-2.72,1.89-.11-.05-.22-.1-.34-.15-.37-.16-.75-.32-1.11-.51-.14-.07-.27-.15-.41-.22-.35-.19-.71-.37-1.05-.58-.13-.08-.26-.17-.39-.25-.34-.21-.68-.42-1-.65ZM54.42,73.05c-.43,6.1-5.71,10.79-11.83,10.85-.13,0-.26,0-.39,0-.14,0-.29,0-.43,0-6.1-.08-11.37-4.76-11.79-10.85-.02-.28-.03-.56-.03-.84,0-.09.01-.18.01-.27,0-.33.02-.66.05-.98.12-1.18.42-2.32.85-3.38.02-.05.03-.1.05-.15.11-.26.24-.51.37-.77.06-.11.11-.23.17-.34.1-.19.22-.37.34-.55.11-.18.22-.35.33-.52.09-.12.18-.24.27-.36.17-.22.34-.44.52-.66.06-.08.13-.15.2-.22.22-.24.45-.48.69-.71,2.19-2.07,5.14-3.34,8.38-3.34s6.19,1.28,8.39,3.35c.24.23.46.46.68.7.07.08.14.15.21.23.18.21.35.43.52.65.09.12.19.24.28.37.12.17.22.34.33.51.11.18.23.37.34.56.06.11.11.22.17.34.13.25.26.51.37.77.02.05.03.09.05.14.44,1.06.73,2.2.85,3.38.03.32.04.65.05.98,0,.09.01.18.01.27,0,.28-.01.57-.03.85ZM58.95,56.86c-.09.1-.16.2-.25.3-.28.31-.58.61-.88.91-.09.08-.16.17-.25.26-.31.29-.63.57-.96.85-.09.08-.17.16-.27.23-.34.28-.69.54-1.05.8-.09.06-.17.13-.26.19-.37.26-.76.5-1.14.74-.08.05-.16.11-.24.16-.4.24-.81.46-1.22.67-.08.04-.16.09-.24.13-.43.21-.87.41-1.31.6-.05.02-.09.04-.14.06-.82-.74-1.73-1.38-2.72-1.89-.83-.43-.8-1.63.08-1.94,6.9-2.43,11.85-9,11.85-16.72s-4.96-14.29-11.85-16.72c-.88-.31-.91-1.51-.08-1.94.99-.51,1.9-1.15,2.72-1.89.38.16.75.33,1.12.51.1.05.2.09.3.14.41.21.81.43,1.21.66.09.05.18.09.26.14.4.24.79.5,1.18.76.07.05.14.09.21.14.39.28.77.57,1.15.87.05.04.11.08.16.12.37.3.73.62,1.08.95.05.04.1.09.15.13.35.34.69.69,1.02,1.04.04.04.08.08.12.12.33.36.65.74.95,1.13.03.04.06.07.09.11.31.4.61.81.89,1.23.02.03.04.05.06.08.29.43.57.88.83,1.33,0,.02.02.03.03.05.26.46.5.93.73,1.4,0,.01.01.02.02.04.23.48.43.96.63,1.45,0,.01.01.03.02.04.99,2.53,1.52,5.27,1.52,8.11,0,.41-.02.81-.05,1.21,0,.16,0,.32-.02.48-.04.48-.09.95-.16,1.42-.01.08-.02.16-.03.24-.07.46-.16.9-.25,1.35-.02.09-.03.18-.05.28-.09.42-.21.82-.33,1.23-.03.12-.06.24-.1.36-.13.41-.27.81-.42,1.21-.04.11-.07.22-.12.33-.15.39-.32.76-.49,1.14-.05.12-.1.24-.15.35-.18.37-.37.73-.57,1.09-.06.11-.12.23-.18.34-.2.36-.43.7-.65,1.05-.07.11-.13.22-.2.33-.23.34-.48.67-.72,1-.08.1-.15.21-.23.31-.25.32-.52.63-.79.94ZM76.8,65.43c-4.23,6.28-10.13,11.35-17.05,14.58-.15.07-.31-.09-.26-.24,3.05-7.99,9.61-13.59,17.13-14.63.16-.02.27.16.18.29ZM76.37,62.5c-4.05-5.03-6.42-12.42-6.42-20.31,0-7.89,2.37-15.28,6.42-20.31.63-.78,1.87-.66,2.35.22,0,.01.02.03.02.04.12.21.18.46.18.7v38.7c0,.24-.06.49-.18.7,0,.01-.02.03-.02.04-.49.88-1.72,1-2.35.22Z"/><circle cx="42.2" cy="42.2" r="12.5"/></svg>