<?xml version="1.0" encoding="UTF-8"?>
<svg id="Layer_1" xmlns="http://www.w3.org/2000/svg" version="1.1" viewBox="0 0 24 24">
  <!-- Generator: Adobe Illustrator 29.5.0, SVG Export Plug-In . SVG Version: 2.1.0 Build 137)  -->
  <path d="M10.2,18.5l-.9.9c0,0-.2.1-.4.1H2c-.3,0-.5-.2-.5-.5v-10c0-.1,0-.3.1-.4l4-4c0,0,.2-.1.4-.1h13c1.4,0,2.5,1.1,2.5,2.5v10c0,1.4-1.1,2.5-2.5,2.5h-6c-.1,0-.3,0-.4-.1l-.9-.9h-1.6ZM2.5,18.5h6.3l.9-.9c0,0,.2-.1.4-.1h2c.1,0,.3,0,.4.1l.9.9h5.8c.8,0,1.5-.7,1.5-1.5V7c0-.8-.7-1.5-1.5-1.5H6.2l-3.7,3.7v9.3ZM18.5,14c0,.4-.4.6-.8.4l-3-2c-.3-.2-.3-.6,0-.8l3-2c.3-.2.8,0,.8.4v4ZM17.5,10.9l-1.6,1.1,1.6,1.1v-2.1ZM4,17.5c-.3,0-.5-.2-.5-.5s.2-.5.5-.5h3c.3,0,.5.2.5.5s-.2.5-.5.5h-3ZM4,15.5c-.3,0-.5-.2-.5-.5s.2-.5.5-.5h3c.3,0,.5.2.5.5s-.2.5-.5.5h-3ZM4,13.5c-.3,0-.5-.2-.5-.5s.2-.5.5-.5h3c.3,0,.5.2.5.5s-.2.5-.5.5h-3ZM4,11.5c-.3,0-.5-.2-.5-.5s.2-.5.5-.5h3c.3,0,.5.2.5.5s-.2.5-.5.5h-3ZM5,9.5c-.3,0-.5-.2-.5-.5s.2-.5.5-.5h2c.3,0,.5.2.5.5s-.2.5-.5.5h-2Z"/>
</svg>